<svg width="80" height="91" viewBox="0 0 80 91" fill="none" xmlns="http://www.w3.org/2000/svg">
<path d="M4.74077 73V18.4545H26.2607C30.3977 18.4545 33.9222 19.2447 36.8342 20.8249C39.7461 22.3874 41.9656 24.5625 43.4925 27.3501C45.0373 30.12 45.8097 33.3161 45.8097 36.9382C45.8097 40.5604 45.0284 43.7564 43.4659 46.5263C41.9034 49.2962 39.6396 51.4535 36.6744 52.9982C33.7269 54.543 30.158 55.3153 25.9677 55.3153H12.2514V46.0735H24.1033C26.3228 46.0735 28.1516 45.6918 29.5898 44.9283C31.0458 44.147 32.1289 43.0728 32.8391 41.7056C33.5671 40.3207 33.9311 38.7315 33.9311 36.9382C33.9311 35.1271 33.5671 33.5469 32.8391 32.1974C32.1289 30.8303 31.0458 29.7738 29.5898 29.0281C28.1339 28.2646 26.2873 27.8828 24.0501 27.8828H16.2731V73H4.74077Z" fill="#003865"/>
<path d="M64.3306 34.1417C64.1175 31.9933 63.2031 30.3242 61.5874 29.1346C59.9716 27.945 57.7788 27.3501 55.0089 27.3501C53.1268 27.3501 51.5376 27.6165 50.2415 28.1491C48.9453 28.6641 47.951 29.3832 47.2585 30.3065C46.5838 31.2298 46.2464 32.2773 46.2464 33.4492C46.2109 34.4258 46.4151 35.2781 46.859 36.006C47.3207 36.734 47.951 37.3643 48.75 37.897C49.549 38.4119 50.4723 38.8647 51.5199 39.2553C52.5675 39.6282 53.6861 39.9478 54.8757 40.2141L59.7763 41.386C62.1555 41.9187 64.3395 42.6289 66.3281 43.5167C68.3168 44.4045 70.0391 45.4964 71.495 46.7926C72.951 48.0888 74.0785 49.6158 74.8775 51.3736C75.6942 53.1314 76.1115 55.1467 76.1293 57.4194C76.1115 60.7575 75.2592 63.6516 73.5724 66.1019C71.9034 68.5344 69.4886 70.4254 66.3281 71.7749C63.1854 73.1065 59.3945 73.7724 54.9556 73.7724C50.5522 73.7724 46.717 73.0977 43.4499 71.7482C40.2006 70.3988 37.6616 68.4013 35.8327 65.7557C34.0217 63.0923 33.0717 59.7987 32.983 55.8746H44.1424C44.2667 57.7035 44.7905 59.2305 45.7138 60.4556C46.6548 61.663 47.9066 62.5774 49.4691 63.1989C51.0494 63.8026 52.8338 64.1044 54.8224 64.1044C56.7756 64.1044 58.4712 63.8203 59.9094 63.2521C61.3654 62.6839 62.4929 61.8938 63.2919 60.8817C64.0909 59.8697 64.4904 58.7067 64.4904 57.3928C64.4904 56.1676 64.1264 55.1378 63.3984 54.3033C62.6882 53.4687 61.6406 52.7585 60.2557 52.1726C58.8885 51.5866 57.2106 51.054 55.2219 50.5746L49.2827 49.0831C44.6839 47.9645 41.0529 46.2156 38.3896 43.8363C35.7262 41.457 34.4034 38.2521 34.4212 34.2216C34.4034 30.919 35.2823 28.0337 37.0579 25.5657C38.8512 23.0977 41.3104 21.1712 44.4354 19.7862C47.5604 18.4013 51.1115 17.7088 55.0888 17.7088C59.1371 17.7088 62.6705 18.4013 65.6889 19.7862C68.7251 21.1712 71.0866 23.0977 72.7734 25.5657C74.4602 28.0337 75.3303 30.8924 75.3835 34.1417H64.3306Z" fill="#EF5B0C"/>
</svg>
